# xmcd CD database file
#
# Track frame offsets:
#	150
#	14772
#	31614
#	52320
#	70105
#	86643
#	101157
#	123575
#	141105
#	157604
#	168102
#	184948
#	210214
#	232996
#	247808
#	270566
#
# Disc length: 3806 seconds
#
# Revision: 0
# Processed by: cddbd v1.5.2PL0 Copyright (c) Steve Scherf et al.
# Submitted via: CDex 1.51
#
DISCID=cd0edc10
DTITLE=Whats Cookin' - Whats Kickin' Vol 2
DYEAR=2007
DGENRE=Country
TTITLE0=the broken family band - you broke my fuckin' heart
TTITLE1=Leeroy Stagger and the sinking hearts - lay down your guns
TTITLE2=dan raza - there's nothing left here for me
TTITLE3=the smoke faries - troubles
TTITLE4=the rosinators - little sadie
TTITLE5=daniel wylie - keep it to yourself
TTITLE6=alan tyler and jason mcniff - guns
TTITLE7=attic lights - bring you down
TTITLE8=foghorn leghorn - madeline
TTITLE9=the dials - lonely boy
TTITLE10=pete molinari - god dam lonesome blues
TTITLE11=the surgens - mean cheatin' man
TTITLE12=steve roberts and the bank of england - the ballad of alaska 
TTITLE13=mike gibson and the city farmers
TTITLE14=blimus - penultimate slacker anthem
TTITLE15=redlands palomino co - she is yours 
EXTD=YEAR: 2007
EXTT0=
EXTT1=
EXTT2=
EXTT3=
EXTT4=
EXTT5=
EXTT6=
EXTT7=
EXTT8=
EXTT9=
EXTT10=
EXTT11=
EXTT12=
EXTT13=
EXTT14=
EXTT15=
PLAYORDER=
